<svg viewBox="0 0 42 39" xmlns="http://www.w3.org/2000/svg" style="fill-rule:evenodd">
    <path d="M5223.61,3060.11C5221.15,3059.7 5218.63,3059.7 5216.17,3060.11L5214.97,3063.82C5212.64,3064.44 5210.45,3065.5 5208.51,3066.93L5204.86,3065.56C5203,3067.23 5201.44,3069.19 5200.22,3071.38L5202.37,3074.63C5201.41,3076.84 5200.86,3079.21 5200.78,3081.62L5197.43,3083.62C5197.57,3086.11 5198.13,3088.56 5199.08,3090.87L5202.97,3091.22C5204.09,3093.35 5205.61,3095.25 5207.44,3096.82L5206.91,3100.68C5208.95,3102.12 5211.22,3103.22 5213.61,3103.91L5216.31,3101.09C5218.68,3101.54 5221.11,3101.54 5223.48,3101.09L5226.17,3103.91C5228.57,3103.22 5230.83,3102.12 5232.87,3100.68L5232.34,3096.82C5234.17,3095.25 5235.69,3093.35 5236.81,3091.22L5240.7,3090.87C5241.65,3088.56 5242.21,3086.11 5242.35,3083.62L5239,3081.62C5238.92,3079.21 5238.38,3076.84 5237.41,3074.63L5239.56,3071.38C5238.35,3069.19 5236.78,3067.23 5234.92,3065.56L5231.27,3066.93C5229.33,3065.5 5227.14,3064.44 5224.81,3063.82L5223.61,3060.11ZM5219.89,3068.81C5227.34,3068.81 5233.39,3074.85 5233.39,3082.31C5233.39,3089.76 5227.34,3095.81 5219.89,3095.81C5212.44,3095.81 5206.39,3089.76 5206.39,3082.31C5206.39,3074.85 5212.44,3068.81 5219.89,3068.81Z" style="fill:#fff" transform="translate(-3287.214 -1942.696)scale(.63493)"/>
    <path d="M5223.61,3060.11C5221.15,3059.7 5218.63,3059.7 5216.17,3060.11L5214.97,3063.82C5212.64,3064.44 5210.45,3065.5 5208.51,3066.93L5204.86,3065.56C5203,3067.23 5201.44,3069.19 5200.22,3071.38L5202.37,3074.63C5201.41,3076.84 5200.86,3079.21 5200.78,3081.62L5197.43,3083.62C5197.57,3086.11 5198.13,3088.56 5199.08,3090.87L5202.97,3091.22C5204.09,3093.35 5205.61,3095.25 5207.44,3096.82L5206.91,3100.68C5208.95,3102.12 5211.22,3103.22 5213.61,3103.91L5216.31,3101.09C5218.68,3101.54 5221.11,3101.54 5223.48,3101.09L5226.17,3103.91C5228.57,3103.22 5230.83,3102.12 5232.87,3100.68L5232.34,3096.82C5234.17,3095.25 5235.69,3093.35 5236.81,3091.22L5240.7,3090.87C5241.65,3088.56 5242.21,3086.11 5242.35,3083.62L5239,3081.62C5238.92,3079.21 5238.38,3076.84 5237.41,3074.63L5239.56,3071.38C5238.35,3069.19 5236.78,3067.23 5234.92,3065.56L5231.27,3066.93C5229.33,3065.5 5227.14,3064.44 5224.81,3063.82L5223.61,3060.11ZM5219.89,3068.81C5227.34,3068.81 5233.39,3074.85 5233.39,3082.31C5233.39,3089.76 5227.34,3095.81 5219.89,3095.81C5212.44,3095.81 5206.39,3089.76 5206.39,3082.31C5206.39,3074.85 5212.44,3068.81 5219.89,3068.81Z" style="fill:#fff" transform="translate(-2126.608 -1231.626)scale(.40917)"/>
</svg>  