<?xml version="1.0" encoding="UTF-8" standalone="no"?>
<!DOCTYPE svg PUBLIC "-//W3C//DTD SVG 1.1//EN" "http://www.w3.org/Graphics/SVG/1.1/DTD/svg11.dtd">
<svg width="100%" height="100%" viewBox="0 0 210 209" version="1.1" xmlns="http://www.w3.org/2000/svg" xmlns:xlink="http://www.w3.org/1999/xlink" xml:space="preserve" xmlns:serif="http://www.serif.com/" style="fill-rule:evenodd;clip-rule:evenodd;stroke-linecap:round;stroke-linejoin:round;stroke-miterlimit:1.5;">
    <g transform="matrix(1,0,0,1,-341,-712)">
        <g transform="matrix(1,0,0,1,-0.888481,3.94341)">
            <g transform="matrix(0.410549,-0.410549,0.410549,0.410549,696.854,1396.56)">
                <path d="M278.619,-902.169L278.619,-895.476C278.619,-893.355 279.462,-891.32 280.962,-889.819C282.463,-888.319 284.497,-887.476 286.619,-887.476L293.312,-887.476M519.926,-887.476L526.619,-887.476C528.741,-887.476 530.776,-888.319 532.276,-889.819C533.776,-891.32 534.619,-893.355 534.619,-895.476L534.619,-902.169M534.619,-1128.78L534.619,-1135.48C534.619,-1137.6 533.776,-1139.63 532.276,-1141.13C530.776,-1142.63 528.741,-1143.48 526.619,-1143.48L519.926,-1143.48M293.312,-1143.48L286.619,-1143.48C284.497,-1143.48 282.463,-1142.63 280.962,-1141.13C279.462,-1139.63 278.619,-1137.6 278.619,-1135.48L278.619,-1128.82" style="fill:none;stroke:rgb(235,235,235);stroke-width:3.44px;"/>
            </g>
        </g>
    </g>
</svg>
