<?xml version="1.0" encoding="UTF-8" standalone="no"?><!DOCTYPE svg PUBLIC "-//W3C//DTD SVG 1.1//EN" "http://www.w3.org/Graphics/SVG/1.1/DTD/svg11.dtd"><svg width="100%" height="100%" viewBox="0 0 42 39" version="1.1" xmlns="http://www.w3.org/2000/svg" xmlns:xlink="http://www.w3.org/1999/xlink" xml:space="preserve" xmlns:serif="http://www.serif.com/" style="fill-rule:evenodd;clip-rule:evenodd;stroke-linejoin:round;stroke-miterlimit:2;"><g><path d="M29.33,0.197l0.764,2.355c1.479,0.394 2.87,1.064 4.1,1.974l2.318,-0.871c1.179,1.059 2.174,2.307 2.944,3.692l-1.365,2.066c0.614,1.402 0.958,2.907 1.013,4.437l2.126,1.269c-0.093,1.582 -0.448,3.138 -1.051,4.604l-2.466,0.221c-0.713,1.354 -1.676,2.561 -2.838,3.558l0.334,2.453c-1.295,0.914 -2.733,1.607 -4.255,2.049l-1.71,-1.79c-1.504,0.286 -3.048,0.286 -4.551,-0l-1.71,1.79c-1.522,-0.442 -2.96,-1.135 -4.255,-2.049l0.334,-2.453c-1.162,-0.997 -2.125,-2.204 -2.838,-3.558l-2.466,-0.221c-0.603,-1.466 -0.959,-3.022 -1.051,-4.604l2.126,-1.269c0.055,-1.53 0.399,-3.035 1.013,-4.437l-1.365,-2.066c0.77,-1.385 1.765,-2.633 2.944,-3.692l2.318,0.871c1.23,-0.91 2.621,-1.58 4.1,-1.974l0.764,-2.355c1.563,-0.263 3.16,-0.263 4.723,-0Zm-2.362,5.517c-4.73,0 -8.571,3.841 -8.571,8.572c0,4.73 3.841,8.571 8.571,8.571c4.731,0 8.572,-3.841 8.572,-8.571c-0,-4.731 -3.841,-8.572 -8.572,-8.572Z" style="fill:white;"/><path d="M10.712,20.444l0.493,1.518c0.953,0.254 1.849,0.686 2.642,1.272l1.494,-0.561c0.76,0.682 1.401,1.487 1.897,2.379l-0.88,1.332c0.396,0.903 0.618,1.873 0.653,2.859l1.37,0.818c-0.059,1.019 -0.288,2.022 -0.677,2.967l-1.589,0.142c-0.46,0.873 -1.08,1.651 -1.829,2.293l0.215,1.581c-0.834,0.589 -1.761,1.036 -2.742,1.321l-1.102,-1.154c-0.969,0.184 -1.964,0.184 -2.933,-0l-1.102,1.154c-0.981,-0.285 -1.907,-0.732 -2.742,-1.321l0.215,-1.581c-0.748,-0.642 -1.369,-1.42 -1.828,-2.293l-1.59,-0.142c-0.389,-0.945 -0.617,-1.948 -0.677,-2.967l1.37,-0.818c0.036,-0.986 0.257,-1.956 0.653,-2.859l-0.88,-1.332c0.496,-0.892 1.138,-1.697 1.898,-2.379l1.493,0.561c0.793,-0.586 1.69,-1.018 2.643,-1.272l0.492,-1.518c1.007,-0.169 2.036,-0.169 3.043,0Zm-1.521,3.556c-3.049,0 -5.524,2.475 -5.524,5.524c-0,3.049 2.475,5.524 5.524,5.524c3.048,-0 5.524,-2.475 5.524,-5.524c-0,-3.049 -2.476,-5.524 -5.524,-5.524Z" style="fill:white;"/></g></svg>