<svg viewBox="0 0 137 26" xmlns="http://www.w3.org/2000/svg">
    <circle cx="5389.06" cy="4127.31" r="4.333" style="fill:#fff" transform="matrix(-.53846 0 0 .53846 2907.85 -2216.01)"/>
    <path d="M5389.06 4122.97c2.39 0 4.33 1.94 4.33 4.34 0 2.39-1.94 4.33-4.33 4.33a4.34 4.34 0 0 1-4.34-4.33c0-2.4 1.95-4.34 4.34-4.34m0 .8c-1.96 0-3.54 1.58-3.54 3.54 0 1.95 1.58 3.53 3.54 3.53 1.95 0 3.54-1.58 3.54-3.53a3.54 3.54 0 0 0-3.54-3.54" style="fill:#fff" transform="matrix(-1.25962 0 0 1.25962 6794.19 -5192.44)"/>
    <path d="M882.128 810.172H770.842l-18.571-18.571" style="fill:none;stroke:#fff;stroke-width:1px" transform="translate(-746 -785)"/>
  </svg>
  