<?xml version="1.0" encoding="UTF-8" standalone="no"?>
<!DOCTYPE svg PUBLIC "-//W3C//DTD SVG 1.1//EN" "http://www.w3.org/Graphics/SVG/1.1/DTD/svg11.dtd">
<svg width="100%" height="100%" viewBox="0 0 62 80" version="1.1" xmlns="http://www.w3.org/2000/svg" xmlns:xlink="http://www.w3.org/1999/xlink" xml:space="preserve" xmlns:serif="http://www.serif.com/" style="fill-rule:evenodd;clip-rule:evenodd;stroke-linejoin:round;stroke-miterlimit:2;">
    <g transform="matrix(1,0,0,1,-547,-140)">
        <g transform="matrix(0.331724,0,0,0.331724,500.194,117.676)">
            <path d="M324.937,276.316C326.534,274.757 327.435,272.619 327.435,270.386C327.435,251.152 327.435,103.706 327.435,75.748C327.435,73.64 326.598,71.619 325.108,70.129C323.617,68.639 321.596,67.802 319.489,67.802C289.022,67.802 179.848,67.802 149.381,67.802C147.274,67.802 145.252,68.639 143.762,70.129C142.272,71.619 141.435,73.64 141.435,75.748L141.435,300.117C141.435,302.225 142.272,304.246 143.762,305.736C145.252,307.226 147.274,308.063 149.381,308.063C177.287,308.063 270.143,308.063 289.041,308.063C291.204,308.063 293.282,307.218 294.83,305.706C301.209,299.479 318.464,282.635 324.937,276.316Z" style="fill:white;"/>
        </g>
    </g>
</svg>
