<svg viewBox="0 0 50 49" xmlns="http://www.w3.org/2000/svg">
    <path d="M4322.67,2853.28C4316.11,2852.32 4309.45,2852.32 4302.89,2853.28L4299.82,2864.97C4293.66,2866.4 4287.77,2868.84 4282.41,2872.18L4271.97,2866.08C4266.65,2870.04 4261.94,2874.76 4257.98,2880.08L4264.08,2890.51C4260.73,2895.88 4258.29,2901.76 4256.86,2907.93L4245.17,2910.99C4244.21,2917.56 4244.21,2924.22 4245.17,2930.78L4256.86,2933.85C4258.29,2940.01 4260.73,2945.9 4264.08,2951.26L4257.98,2961.7C4261.94,2967.02 4266.65,2971.73 4271.97,2975.7L4282.41,2969.59C4287.77,2972.94 4293.66,2975.38 4299.82,2976.81L4302.89,2988.5C4309.45,2989.46 4316.11,2989.46 4322.67,2988.5L4325.74,2976.81C4331.9,2975.38 4337.79,2972.94 4343.15,2969.59L4353.59,2975.7C4358.91,2971.73 4363.63,2967.02 4367.59,2961.7L4361.48,2951.26C4364.83,2945.9 4367.27,2940.01 4368.7,2933.85L4380.39,2930.78C4381.35,2924.22 4381.35,2917.56 4380.39,2910.99L4368.7,2907.93C4367.27,2901.76 4364.83,2895.88 4361.48,2890.51L4367.59,2880.08C4363.63,2874.76 4358.91,2870.04 4353.59,2866.08L4343.15,2872.18C4337.79,2868.84 4331.9,2866.4 4325.74,2864.97L4322.67,2853.28ZM4312.78,2896.29C4326.36,2896.29 4337.38,2907.31 4337.38,2920.89C4337.38,2934.47 4326.36,2945.49 4312.78,2945.49C4299.2,2945.49 4288.18,2934.47 4288.18,2920.89C4288.18,2907.31 4299.2,2896.29 4312.78,2896.29Z" style="fill:#fff" transform="translate(-1510.729 -1015.757)scale(.3561)"/>
</svg>
  