<?xml version="1.0" encoding="UTF-8" standalone="no"?>
<!DOCTYPE svg PUBLIC "-//W3C//DTD SVG 1.1//EN" "http://www.w3.org/Graphics/SVG/1.1/DTD/svg11.dtd">
<svg width="100%" height="100%" viewBox="0 0 861 64" version="1.1" xmlns="http://www.w3.org/2000/svg" xmlns:xlink="http://www.w3.org/1999/xlink" xml:space="preserve" xmlns:serif="http://www.serif.com/" style="fill-rule:evenodd;clip-rule:evenodd;stroke-linecap:round;stroke-linejoin:round;stroke-miterlimit:1.5;">
    <g transform="matrix(1,0,0,1,-28,-27)">
        <g transform="matrix(1,0,0,1,3835.07,-268.577)">
            <g transform="matrix(1,-1.22465e-16,-1.22465e-16,-1,-4519.17,-1037.96)">
                <path d="M713.103,-1347.62L1232.57,-1347.62C1236.86,-1347.62 1240.97,-1349.33 1244.01,-1352.36C1251.17,-1359.52 1264.61,-1372.97 1271.29,-1379.65C1273.84,-1382.19 1277.29,-1383.62 1280.89,-1383.62C1321.77,-1383.62 1571.77,-1383.62 1571.77,-1383.62" style="fill:none;stroke:white;stroke-width:1px;"/>
            </g>
            <g transform="matrix(1,-1.22465e-16,-1.22465e-16,-1,-4516.84,-1024.63)">
                <path d="M710.77,-1347.62L1224.57,-1347.62C1228.86,-1347.62 1232.97,-1349.33 1236.01,-1352.36C1243.17,-1359.52 1256.61,-1372.97 1263.29,-1379.65C1265.84,-1382.19 1269.29,-1383.62 1272.89,-1383.62C1314.22,-1383.62 1569.44,-1383.62 1569.44,-1383.62" style="fill:none;stroke:white;stroke-width:1px;"/>
            </g>
            <g transform="matrix(1,-1.22465e-16,-1.22465e-16,-1,-4519.17,-1050.8)">
                <path d="M713.103,-1347.62L1235.9,-1347.62C1240.19,-1347.62 1244.31,-1349.33 1247.34,-1352.36C1254.5,-1359.52 1267.95,-1372.97 1274.63,-1379.65C1277.17,-1382.19 1280.62,-1383.62 1284.23,-1383.62C1324.84,-1383.62 1571.77,-1383.62 1571.77,-1383.62" style="fill:none;stroke:white;stroke-width:1px;"/>
            </g>
        </g>
    </g>
</svg>
