<svg viewBox="0 0 773 49" xmlns="http://www.w3.org/2000/svg" xml:space="preserve"
    style="fill-rule:evenodd;clip-rule:evenodd;stroke-linejoin:round;stroke-miterlimit:1.5"><path d="M23670.9 15760.6H23234c-2 0-4 .9-5.4 2.3l-28.4 28.4c-2.1 2.1-5.1 3.3-8.1 3.3h-276.9" style="fill:none;stroke:url(#a);stroke-width:1px" transform="matrix(1 0 0 -1 -22903.16 15795.198)"/><path d="M23679.9 15760.6H23234c-2 0-4 .9-5.4 2.3l-28.4 28.4c-2.1 2.1-5.1 3.3-8.1 3.3h-276.9" style="fill:none;stroke:url(#b);stroke-width:1px" transform="matrix(1 0 0 -1 -22908.16 15802.172)"/><path d="M23685.9 15760.6H23234c-2 0-4 .9-5.4 2.3l-28.4 28.4c-2.1 2.1-5.1 3.3-8.1 3.3h-276.9" style="fill:none;stroke:url(#c);stroke-width:1px" transform="matrix(1 0 0 -1 -22914.66 15809.147)"/><defs><linearGradient id="a" x1="0" y1="0" x2="1" y2="0" gradientUnits="userSpaceOnUse" gradientTransform="rotate(-180 11837 7883.3)scale(749.333)"><stop offset="0" style="stop-color:white;stop-opacity:.75"/><stop offset=".57" style="stop-color:white;stop-opacity:.6"/><stop offset=".8" style="stop-color:white;stop-opacity:.29"/><stop offset="1" style="stop-color:white;stop-opacity:0"/></linearGradient><linearGradient id="b" x1="0" y1="0" x2="1" y2="0" gradientUnits="userSpaceOnUse" gradientTransform="rotate(-180 11837 7883.3)scale(749.333)"><stop offset="0" style="stop-color:white;stop-opacity:.2"/><stop offset=".57" style="stop-color:white;stop-opacity:.16"/><stop offset=".8" style="stop-color:white;stop-opacity:.08"/><stop offset="1" style="stop-color:white;stop-opacity:0"/></linearGradient><linearGradient id="c" x1="0" y1="0" x2="1" y2="0" gradientUnits="userSpaceOnUse" gradientTransform="rotate(-180 11837 7883.3)scale(749.333)"><stop offset="0" style="stop-color:white;stop-opacity:.11"/><stop offset=".57" style="stop-color:white;stop-opacity:.09"/><stop offset=".8" style="stop-color:white;stop-opacity:.04"/><stop offset="1" style="stop-color:white;stop-opacity:0"/></linearGradient></defs></svg>