<?xml version="1.0" encoding="UTF-8" standalone="no"?>
<!DOCTYPE svg PUBLIC "-//W3C//DTD SVG 1.1//EN" "http://www.w3.org/Graphics/SVG/1.1/DTD/svg11.dtd">
<svg width="100%" height="100%" viewBox="0 0 65 65" version="1.1" xmlns="http://www.w3.org/2000/svg" xmlns:xlink="http://www.w3.org/1999/xlink" xml:space="preserve" xmlns:serif="http://www.serif.com/" style="fill-rule:evenodd;clip-rule:evenodd;stroke-linejoin:round;stroke-miterlimit:2;">
    <g transform="matrix(1,0,0,1,-466,-141)">
        <g transform="matrix(0.244923,0,0,0.119403,-1779.01,-174.858)">
            <path d="M9431.26,2679.15C9431.26,2662.19 9424.56,2648.44 9416.29,2648.44C9369.36,2648.44 9225.67,2648.44 9182.41,2648.44C9179.11,2648.44 9175.95,2651.14 9173.62,2655.93C9171.3,2660.72 9170,2667.22 9170.01,2673.98C9170.21,2761.68 9170.85,3050.62 9171.07,3150.28C9171.11,3169.17 9178.59,3184.44 9187.8,3184.44C9235.3,3184.44 9370.95,3184.44 9416.29,3184.44C9424.56,3184.44 9431.26,3170.69 9431.26,3153.73C9431.26,3059.26 9431.26,2773.62 9431.26,2679.15Z" style="fill:white;"/>
        </g>
    </g>
</svg>
