<?xml version="1.0" encoding="UTF-8" standalone="no"?>
<!DOCTYPE svg PUBLIC "-//W3C//DTD SVG 1.1//EN" "http://www.w3.org/Graphics/SVG/1.1/DTD/svg11.dtd">
<svg width="100%" height="100%" viewBox="0 0 246 56" version="1.1" xmlns="http://www.w3.org/2000/svg" xmlns:xlink="http://www.w3.org/1999/xlink" xml:space="preserve" xmlns:serif="http://www.serif.com/" style="fill-rule:evenodd;clip-rule:evenodd;stroke-linejoin:round;stroke-miterlimit:2;">
    <g transform="matrix(1,0,0,1,-84,-145)">
        <g transform="matrix(0.494582,0,0,0.648765,-603.197,-103.361)">
            <path d="M1882.84,397.976C1885.43,395.091 1885.71,391.348 1883.58,388.254C1881.44,385.16 1877.23,383.224 1872.64,383.224C1786.79,383.224 1490.23,383.224 1403.32,383.224C1398.68,383.224 1394.43,385.203 1392.32,388.349C1390.2,391.495 1390.58,395.279 1393.28,398.15C1409.41,415.248 1435.44,442.843 1449.68,457.947C1456.04,464.682 1466.25,468.675 1477.13,468.675C1537.78,468.675 1740.07,468.675 1801.46,468.675C1812.61,468.675 1823.05,464.483 1829.35,457.471C1843.06,442.217 1867.64,414.883 1882.84,397.976Z" style="fill:white;"/>
        </g>
    </g>
</svg>
