<svg viewBox="0 0 42 42" xmlns="http://www.w3.org/2000/svg" xml:space="preserve" style="fill-rule:evenodd;clip-rule:evenodd;stroke-linejoin:round;stroke-miterlimit:2"><path d="M9010.68,9785.11C9026.68,9785.11 9039.68,9798.1 9039.68,9814.11C9039.68,9830.11 9026.68,9843.11 9010.68,9843.11C8994.67,9843.11 8981.68,9830.11 8981.68,9814.11C8981.68,9798.1 8994.67,9785.11 9010.68,9785.11ZM9015.01,9831.61C9015.01,9831.92 9014.89,9832.21 9014.67,9832.43C9014.45,9832.65 9014.16,9832.77 9013.84,9832.77C9012.19,9832.77 9009.17,9832.77 9007.51,9832.77C9007.2,9832.77 9006.91,9832.65 9006.69,9832.43C9006.47,9832.21 9006.34,9831.92 9006.34,9831.61C9006.34,9827.45 9006.34,9813.41 9006.34,9809.25C9006.34,9808.94 9006.47,9808.65 9006.69,9808.43C9006.91,9808.21 9007.2,9808.08 9007.51,9808.08C9009.17,9808.08 9012.19,9808.08 9013.84,9808.08C9014.16,9808.08 9014.45,9808.21 9014.67,9808.43C9014.89,9808.65 9015.01,9808.94 9015.01,9809.25C9015.01,9813.41 9015.01,9827.45 9015.01,9831.61ZM9015.01,9801.41C9015.01,9801.72 9014.89,9802.02 9014.67,9802.24C9014.45,9802.45 9014.16,9802.58 9013.84,9802.58C9012.19,9802.58 9009.17,9802.58 9007.51,9802.58C9007.2,9802.58 9006.91,9802.45 9006.69,9802.24C9006.47,9802.02 9006.34,9801.72 9006.34,9801.41C9006.34,9799.59 9006.34,9796.09 9006.34,9794.27C9006.34,9793.96 9006.47,9793.67 9006.69,9793.45C9006.91,9793.23 9007.2,9793.11 9007.51,9793.11C9009.17,9793.11 9012.19,9793.11 9013.84,9793.11C9014.16,9793.11 9014.45,9793.23 9014.67,9793.45C9014.89,9793.67 9015.01,9793.96 9015.01,9794.27C9015.01,9796.09 9015.01,9799.59 9015.01,9801.41Z" style="fill:#fff" transform="translate(-6426.542 -7001.412)scale(.71552)"/></svg>