<svg viewBox="0 0 253 19" xmlns="http://www.w3.org/2000/svg">
    <path d="M-259.714-1307.81q0 0 0 0c.56 7.89 7.121 14 15.026 14h145.697c16.312 0 31.972 6.4 43.614 17.82l.002.01a42.9 42.9 0 0 0 30.045 12.28h80.527" style="fill:none;stroke:#fff;stroke-width:2.5px" transform="matrix(.3998 0 0 -.3998 104.331 -504.719)"/>
    <path d="M-259.714-1307.81q0 0 0 0c.56 7.89 7.121 14 15.026 14h145.697c16.312 0 31.972 6.4 43.614 17.82l.002.01a42.9 42.9 0 0 0 30.045 12.28h80.527" style="fill:none;stroke:#fff;stroke-width:2.5px" transform="rotate(180 74.233 -252.36)scale(.3998)"/>
</svg>
  